<svg width="32" height="33" viewBox="0 0 32 33" fill="none" xmlns="http://www.w3.org/2000/svg">
<path d="M31.5003 1.00199C31.2665 0.768324 30.9703 0.607193 30.6471 0.537998C30.324 0.468802 29.9877 0.494491 29.6788 0.611972L1.10463 11.4275H1.09892C0.769452 11.5542 0.487138 11.7796 0.29053 12.0727C0.0939214 12.3659 -0.00739423 12.7126 0.000420323 13.0656C0.00823487 13.4185 0.124799 13.7604 0.334191 14.0446C0.543584 14.3287 0.835596 14.5414 1.17035 14.6534L1.19963 14.6627L11.007 18.8507C11.1983 18.9088 11.4014 18.9157 11.5962 18.8707C11.791 18.8257 11.9706 18.7304 12.117 18.5943L27.8573 3.92714C27.9042 3.88023 27.9599 3.84303 28.0212 3.81764C28.0825 3.79226 28.1481 3.77919 28.2145 3.77919C28.2808 3.77919 28.3465 3.79226 28.4078 3.81764C28.469 3.84303 28.5247 3.88023 28.5716 3.92714C28.6185 3.97404 28.6557 4.02972 28.6811 4.091C28.7065 4.15228 28.7196 4.21796 28.7196 4.2843C28.7196 4.35063 28.7065 4.41631 28.6811 4.47759C28.6557 4.53887 28.6185 4.59455 28.5716 4.64146L13.9042 20.3751C13.7681 20.5215 13.6728 20.7011 13.6278 20.8959C13.5828 21.0907 13.5897 21.2938 13.6477 21.4851L17.8371 31.2985C17.8414 31.3128 17.8457 31.3256 17.8507 31.3392C18.0793 32.0014 18.6578 32.4685 19.3571 32.5H19.4286C19.7816 32.502 20.1271 32.3977 20.4201 32.2008C20.7131 32.0038 20.94 31.7233 21.0715 31.3956L31.8853 2.82851C32.0044 2.51941 32.0315 2.1824 31.9631 1.85825C31.8948 1.5341 31.734 1.23669 31.5003 1.00199Z" fill="white"/>
</svg>
