<svg width="187" height="186" viewBox="0 0 187 186" fill="none" xmlns="http://www.w3.org/2000/svg">
<circle cx="93.5" cy="93" r="93" fill="#1C222D"/>
<path d="M149.744 33.2845H28.5C22.9772 33.2845 18.5 37.7617 18.5 43.2846V163C18.5 168.523 22.9772 173 28.5 173H149.744C155.267 173 159.744 168.523 159.744 163V43.2845C159.744 37.7617 155.267 33.2845 149.744 33.2845Z" fill="#A5896B"/>
<path fill-rule="evenodd" clip-rule="evenodd" d="M167.092 38.6394C167.092 33.1166 162.614 28.6394 157.092 28.6394H33.3692C27.8578 28.6394 23.3854 33.0987 23.3692 38.6101L23.0195 157.992C23.0033 163.506 27.4525 167.992 32.9657 168.021L157.038 168.688C162.582 168.718 167.092 164.232 167.092 158.688V38.6394Z" fill="#D8B05C"/>
<path fill-rule="evenodd" clip-rule="evenodd" d="M37.1474 65.0617C37.9888 61.6713 40.5385 58.9657 43.873 57.9248L69.6123 49.8896C71.165 49.4049 72.576 48.5488 73.723 47.3955L83.4184 37.6464C84.7444 36.313 86.4195 35.3806 88.2514 34.9561L103.005 31.5368C103.546 31.4116 104.096 31.3315 104.65 31.2975L147.905 28.6394H157.092C162.614 28.6394 167.092 33.1166 167.092 38.6394V114.172C167.092 115.913 166.431 117.589 165.243 118.862L163.261 120.986C160.025 124.455 154.769 125.156 150.718 122.687C147.941 120.994 144.498 120.747 141.515 122.042L115.902 133.159C113.641 134.141 111.822 135.923 110.794 138.164L108.692 142.747C108.437 143.305 108.233 143.885 108.083 144.48L105.902 153.167C104.892 157.186 101.509 160.166 97.3944 160.66L71.9765 163.711L50.7849 165.51C47.0103 165.83 43.3787 163.99 41.4044 160.757L40.1354 158.679L34.0351 151.161C32.6941 149.508 31.9154 147.47 31.8124 145.345L30.417 116.571C30.3648 115.495 30.487 114.417 30.7788 113.379L32.1614 108.464C33.0631 105.258 32.3097 101.813 30.152 99.2768L28.9098 97.8165C25.7326 94.0813 25.7325 88.5933 28.9098 84.858L32.0814 81.1294C33.0828 79.9522 33.7977 78.5589 34.1699 77.0589L37.1474 65.0617Z" fill="#EDCC88"/>
<path fill-rule="evenodd" clip-rule="evenodd" d="M142.754 66.7519C145.438 66.3986 148.106 67.5005 149.758 69.644L149.914 69.8456C152.56 73.2787 151.681 78.2438 148.017 80.5597C147.671 80.7782 147.344 81.0251 147.039 81.298L141.114 86.6032C140.474 87.177 139.91 87.831 139.436 88.5492L135.718 94.1887C133.597 97.4069 129.386 98.5011 125.966 96.7231C122.295 94.8143 117.771 96.2286 115.841 99.8887L115.29 100.933C113.186 104.922 108.385 106.646 104.224 104.905L101.264 103.667C99.1018 102.763 97.6944 100.649 97.6944 98.3054C97.6944 95.7702 96.0512 93.5275 93.6338 92.7635L93.5201 92.7276C92.2567 92.3284 91.1619 91.5205 90.4079 90.4311L84.1549 81.3976C83.4056 80.3151 83.0404 79.013 83.1174 77.6987C83.2847 74.8429 81.377 72.2794 78.5934 71.6197L77.65 71.3961C77.138 71.2747 76.6535 71.0583 76.2215 70.7579C73.6854 68.9946 73.8574 65.1886 76.5423 63.6613L80.6142 61.3451C82.1492 60.4719 83.9531 60.1976 85.6783 60.5751L90.2781 61.5815C92.3984 62.0453 94.2181 63.3959 95.2763 65.2909C96.5295 67.5352 98.8349 68.9915 101.4 69.1593L109.125 69.6644L132.393 68.1163L142.754 66.7519Z" fill="#DC662B"/>
<path fill-rule="evenodd" clip-rule="evenodd" d="M65.3913 156.579C66.6984 156.441 67.9864 156.974 68.8145 157.994L69.0497 158.284C70.3904 159.937 69.9877 162.389 68.189 163.526C67.9935 163.649 67.8106 163.792 67.6428 163.951L64.3848 167.04C64.276 167.143 64.1777 167.257 64.0914 167.379C63.6618 167.99 62.9577 168.349 62.2109 168.338L41.5976 168.022C39.3972 167.989 37.346 166.904 36.0802 165.103L35.4656 164.229C35.0515 163.64 34.8294 162.938 34.8294 162.218C34.8294 160.598 33.7162 159.19 32.1397 158.817L31.855 158.749C31.6618 158.704 31.4767 158.629 31.3059 158.528C29.9864 157.746 30.0297 155.822 31.3831 155.1L33.709 153.859C34.4322 153.474 35.2691 153.358 36.0697 153.533L38.5907 154.085C39.5707 154.299 40.4062 154.935 40.8742 155.822C41.4297 156.876 42.4952 157.562 43.684 157.633L48.3006 157.906L60.1389 157.132L65.3913 156.579Z" fill="#DC662B"/>
<path fill-rule="evenodd" clip-rule="evenodd" d="M22.9902 124.29C22.9902 123.566 23.4592 122.923 24.1542 122.719C27.4402 121.753 30.7261 121.098 34.0121 120.751C38.5026 120.364 42.5848 118.042 46.667 115.333C50.7492 112.237 54.0149 108.367 57.2807 104.884C60.9546 100.626 65.8532 97.9171 70.3437 95.2079C74.4258 92.4988 78.508 90.1766 80.5491 87.0804C81.7738 85.1453 83.8149 83.2102 85.4478 81.6621C87.4889 80.114 89.1218 78.5659 91.5711 77.4048C102.593 70.8254 116.881 67.7292 128.311 66.9551C129.535 66.9551 131.577 64.633 134.026 62.6978C136.883 59.9887 139.333 57.6666 142.19 58.0536C149.13 59.2147 154.437 59.6017 159.744 59.2147C161.479 58.9404 163.42 58.6662 165.274 58.1166C166.334 57.8026 167.5 58.554 167.5 59.6595C167.5 60.3163 167.075 60.9008 166.442 61.0743C164.345 61.6483 162.248 61.9796 160.152 62.3109C154.704 63.0487 149.257 62.7316 142.396 61.3597C141.716 61.2238 141.007 61.1783 140.429 61.5607C139.417 62.2311 137.946 63.6255 136.475 65.02C134.026 67.3422 131.577 70.0514 128.719 70.0514C117.697 70.8254 103.818 73.5345 93.6122 80.1139C91.9263 81.0729 90.5188 82.296 88.9298 83.3469C88.2574 83.7917 87.5991 84.2622 87.0186 84.8215C85.6902 86.1015 84.4111 87.4284 83.4067 89.0155C80.5492 92.4987 76.4669 95.2079 71.9765 97.917C67.8943 100.626 63.4039 103.335 59.73 107.206C56.4642 111.076 52.7902 114.946 48.7081 118.042C44.6259 121.526 39.7272 123.848 34.4204 124.235C31.4585 124.547 28.2313 125.11 25.1666 125.925C24.0817 126.214 22.9902 125.413 22.9902 124.29Z" fill="#678498"/>
<path fill-rule="evenodd" clip-rule="evenodd" d="M71.1602 65.02C69.5153 63.8504 65.9004 65.8335 66.4431 67.7774L66.9482 69.5864C67.0336 69.8923 67.1884 70.1743 67.4007 70.4105L85.661 90.7335C85.7906 90.8777 85.9018 91.0374 85.9923 91.2089L86.0012 91.2258C86.174 91.5534 86.2643 91.9182 86.2643 92.2885C86.2643 92.4283 86.2772 92.5679 86.3028 92.7054L88.0596 102.144C88.4825 104.416 89.6793 106.471 91.4466 107.961L96.0616 111.85L96.4732 112.24C96.7413 112.494 96.9659 112.791 97.1382 113.117C97.2367 113.304 97.3174 113.499 97.3795 113.701L98.4181 117.077C99.4836 120.541 102.339 123.157 105.883 123.915L108.81 124.542C111.367 125.089 114.1 124.732 116.479 123.647C116.61 123.588 116.744 123.525 116.881 123.461C119.33 122.3 121.779 121.525 122.596 119.203C123.82 116.107 123.82 112.237 123.412 108.754C123.004 105.271 122.188 101.4 120.963 97.917C120.146 94.8208 117.289 92.4987 114.84 90.1765C114.53 89.8827 114.22 89.6446 113.932 89.4199C113.072 88.748 112.394 87.8583 111.602 87.1073C110.418 85.9841 109.233 84.8609 108.048 83.7377C107.953 83.6475 107.827 83.5972 107.696 83.5972C107.565 83.5972 107.439 83.5468 107.343 83.4566C102.093 78.4723 97.2292 73.5021 91.1629 70.0514C88.7136 68.5033 85.4479 68.1163 82.1821 68.1163C78.0999 67.7292 74.426 67.3421 71.1602 65.02ZM167.092 145.134C167.092 147.058 165.532 148.617 163.609 148.617H160.968C160.431 148.617 159.9 148.498 159.414 148.267L159.336 148.23L130.388 136.2C129.821 135.964 129.233 135.781 128.632 135.653L115.605 132.881C111.886 132.089 107.995 133.447 105.891 136.614C104.901 138.106 103.951 139.643 103.001 141.264C98.5109 148.23 94.0205 154.809 87.0807 159.454C82.1821 162.55 76.467 162.937 70.3437 162.937C65.4451 162.937 60.5465 163.324 56.4643 165.259C54.5191 165.997 52.574 167.086 50.6288 168.192C50.4402 168.299 50.2269 168.355 50.0099 168.355C48.7369 168.355 48.3124 166.738 49.4485 166.163C51.428 165.163 53.4659 164.243 55.6479 163.324C60.1383 161.389 65.4451 161.002 70.3437 161.002C76.0588 160.615 81.3657 160.615 85.8561 157.906C92.3876 153.648 96.4698 147.069 100.96 140.49C101.037 140.373 101.114 140.257 101.191 140.14C103.825 136.145 101.58 130.545 96.878 129.653L96.78 129.634C95.6032 129.411 94.6759 128.503 94.4287 127.331L92.033 119.665C91.4648 117.847 90.3891 116.229 88.9324 115.001L83.815 110.689L83.6699 110.551C83.2287 110.133 82.8934 109.616 82.6917 109.042C82.6242 108.85 82.5721 108.653 82.5359 108.453L80.6356 97.9429C80.312 96.1535 79.5066 94.4862 78.3061 93.1203L62.3488 74.9658C61.9651 74.5292 61.6341 74.0488 61.3629 73.5346C61.0916 73.0201 60.878 72.4772 60.726 71.9158L53.1986 44.1208L50.3297 33.5132C49.7181 31.2518 51.4213 29.0269 53.7639 29.0269C55.3603 29.0269 56.7612 30.0902 57.1905 31.6277L60.1383 42.1856L61.5714 48.3C61.704 48.8657 61.9083 49.4121 62.1794 49.9261C65.0369 54.9574 68.3026 59.9887 72.7931 63.4719C75.2424 65.4071 78.9164 65.7941 82.5903 66.1811C86.2643 66.5682 89.53 66.9551 92.7958 68.5032C98.7838 72.0514 103.399 76.5755 108.215 81.1808C109.085 82.0123 110.099 82.6794 111.215 83.1311C118 85.8799 124.758 87.943 131.168 89.0155C138.516 90.1766 145.864 90.5635 153.212 89.7895C157.515 89.4496 161.502 87.9155 165.728 85.9738C166.554 85.5945 167.5 86.1927 167.5 87.1012C167.5 87.5638 167.242 87.9891 166.828 88.1958C162.561 90.328 158.275 91.7439 153.62 92.1117C145.864 92.8857 138.516 92.4988 130.76 91.3377C125.394 90.6108 120.027 89.2014 114.66 87.1095C114.442 87.0243 114.261 87.3061 114.431 87.4674C114.431 87.4674 114.431 87.4674 114.431 87.4675C115.248 88.2415 115.656 88.6285 116.473 89.4026C119.33 91.7247 122.188 94.4338 123.412 97.917C124.637 101.4 125.453 105.27 125.862 109.141C126.27 113.011 126.27 116.881 124.637 120.364C123.416 123.452 120.57 124.615 117.72 125.773C117.705 125.78 117.69 125.783 117.673 125.783C117.518 125.789 117.565 126.394 117.717 126.425L131.423 129.234C131.525 129.255 131.629 129.266 131.734 129.266H131.985C132.254 129.266 132.521 129.32 132.769 129.424L160.963 141.304C161.505 141.533 162.088 141.651 162.677 141.651H163.609C165.532 141.651 167.092 143.21 167.092 145.134Z" fill="#FDF9D7"/>
<path fill-rule="evenodd" clip-rule="evenodd" d="M117.552 125.839C117.387 125.804 117.245 125.835 117.106 125.931C116.703 126.211 116.694 126.758 117.177 126.852L131.176 129.575C131.442 129.626 131.713 129.653 131.985 129.653C132.254 129.653 132.521 129.706 132.769 129.811L160.963 141.691C161.505 141.919 162.088 142.037 162.677 142.037H166.705C166.918 142.037 167.092 141.864 167.092 141.65C167.092 141.437 166.918 141.263 166.705 141.263H162.677C162.088 141.263 161.505 141.146 160.963 140.917L132.769 129.037C132.521 128.932 132.254 128.878 131.985 128.878C131.713 128.878 131.443 128.85 131.178 128.792L117.552 125.839ZM64.2302 58.0948C64.2236 58.0672 64.2152 58.0432 64.2016 58.0183C64.0108 57.6669 63.1691 58.0596 63.2661 58.4476L66.1543 70.0091C66.2246 70.2907 66.3628 70.5508 66.5568 70.7667L84.8444 91.1201C84.974 91.2643 85.0852 91.424 85.1757 91.5955L85.1846 91.6125C85.3574 91.94 85.4477 92.3048 85.4477 92.6752C85.4477 92.815 85.4606 92.9545 85.4862 93.092L87.243 102.53C87.6659 104.803 88.8628 106.858 90.63 108.347L95.245 112.237L95.6564 112.627C95.9246 112.881 96.1494 113.177 96.3217 113.504C96.4201 113.691 96.5009 113.886 96.5629 114.088L99.3123 123.025C99.3221 123.057 99.3272 123.09 99.3272 123.124C99.3272 123.31 99.4778 123.46 99.6636 123.46H99.6993C99.7233 123.46 99.7473 123.463 99.7709 123.467L111.268 125.722C111.46 125.76 111.67 125.684 111.835 125.58C112.246 125.321 112.153 124.87 111.679 124.769L103.132 122.939C101.287 122.544 99.7998 121.182 99.245 119.378L97.3793 113.314C97.3173 113.112 97.2365 112.917 97.1381 112.73C96.9658 112.403 96.7411 112.107 96.4731 111.853L96.0614 111.462L91.6585 107.984C89.7598 106.484 88.4694 104.346 88.0266 101.967L86.2892 92.6328C86.2725 92.5433 86.2642 92.4525 86.2642 92.3615C86.2642 91.9546 86.0969 91.5657 85.8016 91.2857L85.4477 90.9502L68.7189 71.9179C67.6413 70.692 66.8801 69.2208 66.502 67.633L64.2302 58.0948ZM56.5444 28.9268C56.497 28.7569 56.3421 28.6394 56.1657 28.6394C55.9055 28.6394 55.717 28.8877 55.787 29.1383L59.3217 41.7982L60.2547 45.9263C60.4483 46.7827 60.7538 47.6099 61.1634 48.3865C61.3659 48.7706 61.5685 49.1546 61.771 49.5387C61.8313 49.6531 62.0054 49.5875 61.9752 49.4617L60.1381 41.7982L56.5444 28.9268ZM107.018 131.263C106.901 131.374 106.581 131.57 106.423 131.54L96.4696 129.653L94.463 129.272C94.4401 129.268 94.4168 129.266 94.3935 129.266H94.3708C94.1772 129.266 94.0203 129.109 94.0203 128.915C94.0203 128.891 94.0178 128.867 94.0128 128.843L93.6121 126.943L91.2164 119.278C90.6482 117.46 89.5725 115.842 88.1159 114.614L82.9984 110.301L82.8587 110.169C82.4139 109.747 82.0759 109.226 81.8726 108.648C81.8068 108.46 81.7555 108.268 81.7192 108.073L79.8371 97.9619C79.5018 96.1603 78.6779 94.4855 77.4554 93.1205L61.1485 74.9117C61.0197 74.7679 60.909 74.6089 60.819 74.4381L60.7844 74.3727C60.6281 74.0762 60.5463 73.746 60.5463 73.4108C60.5463 73.2357 60.524 73.0614 60.48 72.8919L53.2462 45.0782C53.2145 44.9562 53.1984 44.8306 53.1984 44.7046C53.1984 44.5737 53.1811 44.4434 53.1469 44.3171L49.2499 29.908C49.1825 29.6587 49.3702 29.4135 49.6284 29.4135C49.8075 29.4135 49.9637 29.5348 50.0082 29.7082L53.5598 43.5507C53.5909 43.672 53.6066 43.7966 53.6066 43.9218C53.6066 44.0536 53.6241 44.1848 53.6585 44.312L61.315 72.5835C61.3467 72.7007 61.3628 72.8216 61.3628 72.943V72.9716C61.3628 73.3308 61.5104 73.6741 61.771 73.9212L78.3059 92.7329C79.5065 94.0987 80.3118 95.7661 80.6354 97.5555L82.5545 108.169C82.5782 108.3 82.5902 108.433 82.5902 108.567C82.5902 109.18 82.8422 109.766 83.2873 110.188L83.4066 110.301L88.5241 114.614C89.9807 115.842 91.0564 117.46 91.6247 119.278L94.0203 126.943C94.2697 127.889 95.0405 128.607 96.0015 128.79L96.4696 128.878L106.784 131.135C106.968 131.175 107.154 131.134 107.018 131.263ZM167.092 148.81C167.092 149.131 166.832 149.391 166.511 149.391H160.968C160.431 149.391 159.9 149.271 159.414 149.041L159.335 149.004L130.407 136.981C129.827 136.74 129.226 136.554 128.611 136.426L109.992 132.543C109.626 132.466 109.457 132.047 109.728 131.789C109.837 131.686 110.028 131.605 110.175 131.633L128.945 135.265C129.609 135.393 130.258 135.589 130.883 135.848L159.579 147.774C159.688 147.819 159.787 147.884 159.873 147.965C160.052 148.135 160.289 148.23 160.536 148.23H160.968H166.511C166.832 148.23 167.092 148.49 167.092 148.81Z" fill="#A5896B"/>
<path fill-rule="evenodd" clip-rule="evenodd" d="M119.738 45.6685C123.004 46.4425 125.454 48.3777 125.454 50.6999C125.454 52.635 123.004 53.796 119.738 53.409C116.473 52.6349 114.023 50.6998 114.023 48.3777C114.023 46.0556 116.473 44.8944 119.738 45.6685Z" fill="#808184"/>
<path fill-rule="evenodd" clip-rule="evenodd" d="M127.095 17.2528C127.772 15.6186 129.626 14.8182 131.279 15.4454C133.006 16.1002 133.849 18.0527 133.143 19.7586L121.292 48.3581C121.073 48.8862 120.83 49.4399 120.332 49.7221C118.315 50.8673 113.399 49.9032 114.84 46.8297L127.095 17.2528Z" fill="#D1D3D2"/>
<path fill-rule="evenodd" clip-rule="evenodd" d="M130.994 17.2879C131.316 16.5032 132.212 16.1267 132.998 16.4459C133.79 16.7675 134.168 17.6722 133.841 18.4615L120.963 49.5394C120.075 51.2236 118.081 48.7689 118.804 47.0072L130.994 17.2879Z" fill="#A7A9AC"/>
<path fill-rule="evenodd" clip-rule="evenodd" d="M132.393 25.5436C139.741 25.5436 145.864 19.7382 145.864 12.7717C145.864 5.80531 139.741 0 132.393 0C125.045 0 118.922 5.80531 118.922 12.7717C118.922 20.1252 125.045 25.5436 132.393 25.5436Z" fill="#CD7031"/>
<path fill-rule="evenodd" clip-rule="evenodd" d="M132.393 0C134.663 0 136.932 0.560781 138.928 1.55246C140.623 2.39476 141.731 4.06223 141.774 5.95448C141.782 6.30988 141.782 6.65229 141.782 6.96638C141.782 15.8679 134.434 22.8344 125.045 22.8344C124.514 22.8344 123.991 22.6752 123.58 22.3395C120.695 19.9857 118.922 16.3787 118.922 12.7717C118.922 5.80531 125.045 0 132.393 0Z" fill="#EF492F"/>
<path fill-rule="evenodd" clip-rule="evenodd" d="M126.27 4.25735C127.494 3.09628 129.127 2.70921 129.944 3.48326C130.576 4.08297 130.229 5.14729 129.47 5.95629C129.025 6.43116 128.499 6.83375 127.947 7.17874C126.875 7.84869 125.699 7.97314 125.045 7.35349C124.228 6.57945 124.637 5.41842 126.27 4.25735Z" fill="white"/>
</svg>
