<svg width="225" height="186" viewBox="0 0 225 186" fill="none" xmlns="http://www.w3.org/2000/svg">
<circle cx="107.5" cy="93" r="93" fill="#1C222D"/>
<path fill-rule="evenodd" clip-rule="evenodd" d="M68.5543 34H54.211L42.0039 57.7217H59.0938V48.902H68.5543V34Z" fill="#E67C25"/>
<path fill-rule="evenodd" clip-rule="evenodd" d="M52.3804 37.9538L49.0234 44.0363H68.5548V37.9538H52.3804Z" fill="#414243"/>
<path fill-rule="evenodd" clip-rule="evenodd" d="M87.7803 69.5824H169.263V108.206H145.154V106.99H139.66V108.206H131.115V106.99H125.927V108.206H117.077V106.99H111.889V108.206H87.7803V69.5824Z" fill="#E67C25"/>
<path d="M92.3584 70.4949H90.5273V105.773H92.3584V70.4949Z" fill="#DC662B"/>
<path d="M96.0205 70.4949H94.1895V105.773H96.0205V70.4949Z" fill="#DC662B"/>
<path d="M99.6826 70.4949H97.8516V105.773H99.6826V70.4949Z" fill="#DC662B"/>
<path d="M103.649 70.4949H101.818V105.773H103.649V70.4949Z" fill="#DC662B"/>
<path d="M107.312 70.4949H105.481V105.773H107.312V70.4949Z" fill="#DC662B"/>
<path d="M110.974 70.4949H109.143V105.773H110.974V70.4949Z" fill="#DC662B"/>
<path d="M114.637 70.4949H112.806V105.773H114.637V70.4949Z" fill="#DC662B"/>
<path d="M118.298 70.4949H116.467V105.773H118.298V70.4949Z" fill="#DC662B"/>
<path d="M121.96 70.4949H120.129V105.773H121.96V70.4949Z" fill="#DC662B"/>
<path d="M125.623 70.4949H123.792V105.773H125.623V70.4949Z" fill="#DC662B"/>
<path d="M129.285 70.4949H127.454V105.773H129.285V70.4949Z" fill="#DC662B"/>
<path d="M132.947 70.4949H131.116V105.773H132.947V70.4949Z" fill="#DC662B"/>
<path d="M136.609 70.4949H134.778V105.773H136.609V70.4949Z" fill="#DC662B"/>
<path d="M140.576 70.4949H138.745V105.773H140.576V70.4949Z" fill="#DC662B"/>
<path d="M144.238 70.4949H142.407V105.773H144.238V70.4949Z" fill="#DC662B"/>
<path d="M147.9 70.4949H146.069V105.773H147.9V70.4949Z" fill="#DC662B"/>
<path d="M151.562 70.4949H149.731V105.773H151.562V70.4949Z" fill="#DC662B"/>
<path d="M155.225 70.4949H153.394V105.773H155.225V70.4949Z" fill="#DC662B"/>
<path d="M158.888 70.4949H157.057V105.773H158.888V70.4949Z" fill="#DC662B"/>
<path d="M162.549 70.4949H160.718V105.773H162.549V70.4949Z" fill="#DC662B"/>
<path d="M166.211 70.4949H164.38V105.773H166.211V70.4949Z" fill="#DC662B"/>
<path fill-rule="evenodd" clip-rule="evenodd" d="M139.661 101.82H224.5L220.838 109.119C204.969 114.897 181.47 133.449 169.873 152H23.9987L0.5 114.289V108.206H134.778C137.219 108.206 139.356 106.077 139.356 103.644V101.82H139.661Z" fill="#414243"/>
<path fill-rule="evenodd" clip-rule="evenodd" d="M179.639 139.227C175.977 143.484 172.62 147.742 169.874 152H23.9991L16.0645 139.227H179.639Z" fill="#E67C25"/>
<path fill-rule="evenodd" clip-rule="evenodd" d="M188.184 110.031C189.404 110.031 190.32 111.248 189.709 113.072C189.404 114.593 187.878 116.113 186.658 116.113C185.437 116.113 184.521 114.897 185.132 113.072C185.437 111.552 186.658 110.031 188.184 110.031Z" fill="#E67C25"/>
<path d="M59.0944 57.7219H21.5576V108.511H59.0944V57.7219Z" fill="#D8B05C"/>
<path fill-rule="evenodd" clip-rule="evenodd" d="M82.8971 108.206H59.0933H42.3086V68.9743H59.0933V48.9022H82.8971V108.206Z" fill="#D1D3D2"/>
<path d="M82.8975 55.5927H63.9766V61.9792H82.8975V55.5927Z" fill="#A4C3D1"/>
<path d="M51.7696 74.1442H49.3281V77.7937H51.7696V74.1442Z" fill="#939597"/>
<path d="M51.7696 82.0517H49.3281V85.7012H51.7696V82.0517Z" fill="#939597"/>
<path d="M51.7696 89.6549H49.3281V93.3044H51.7696V89.6549Z" fill="#939597"/>
<path d="M58.7891 74.1442H56.3477V77.7937H58.7891V74.1442Z" fill="#939597"/>
<path d="M58.7891 82.0517H56.3477V85.7012H58.7891V82.0517Z" fill="#939597"/>
<path d="M58.7891 89.6549H56.3477V93.3044H58.7891V89.6549Z" fill="#939597"/>
<path d="M65.8076 74.1442H63.3662V77.7937H65.8076V74.1442Z" fill="#939597"/>
<path d="M65.8076 82.0517H63.3662V85.7012H65.8076V82.0517Z" fill="#939597"/>
<path d="M65.8076 89.6549H63.3662V93.3044H65.8076V89.6549Z" fill="#939597"/>
<path d="M73.1319 74.1442H70.6904V77.7937H73.1319V74.1442Z" fill="#939597"/>
<path d="M73.1319 82.0517H70.6904V85.7012H73.1319V82.0517Z" fill="#939597"/>
<path d="M73.1319 89.6549H70.6904V93.3044H73.1319V89.6549Z" fill="#939597"/>
<path fill-rule="evenodd" clip-rule="evenodd" d="M47.1919 125.237C49.3282 125.237 51.1592 123.413 51.1592 121.284C51.1592 119.155 49.3282 117.33 47.1919 117.33C45.0557 117.33 43.2246 119.155 43.2246 121.284C43.2246 123.413 45.0557 125.237 47.1919 125.237Z" fill="#A4C3D1"/>
<path fill-rule="evenodd" clip-rule="evenodd" d="M64.2817 125.237C66.4179 125.237 68.249 123.413 68.249 121.284C68.249 119.155 66.4179 117.33 64.2817 117.33C62.1455 117.33 60.3144 119.155 60.3144 121.284C60.0092 123.413 62.1455 125.237 64.2817 125.237Z" fill="#A4C3D1"/>
<path fill-rule="evenodd" clip-rule="evenodd" d="M81.3716 125.237C83.5079 125.237 85.3389 123.413 85.3389 121.284C85.3389 119.155 83.5079 117.33 81.3716 117.33C79.2354 117.33 77.4044 119.155 77.4044 121.284C77.0992 123.413 78.9302 125.237 81.3716 125.237Z" fill="#A4C3D1"/>
<path fill-rule="evenodd" clip-rule="evenodd" d="M98.4615 125.237C100.598 125.237 102.429 123.413 102.429 121.284C102.429 119.155 100.598 117.33 98.4615 117.33C96.3253 117.33 94.4942 119.155 94.4942 121.284C94.189 123.413 96.0201 125.237 98.4615 125.237Z" fill="#A4C3D1"/>
<path fill-rule="evenodd" clip-rule="evenodd" d="M115.552 125.237C117.689 125.237 119.52 123.413 119.52 121.284C119.52 119.155 117.689 117.33 115.552 117.33C113.416 117.33 111.585 119.155 111.585 121.284C111.28 123.413 113.111 125.237 115.552 125.237Z" fill="#A4C3D1"/>
<path fill-rule="evenodd" clip-rule="evenodd" d="M132.642 125.237C134.778 125.237 136.609 123.413 136.609 121.284C136.609 119.155 134.778 117.33 132.642 117.33C130.506 117.33 128.675 119.155 128.675 121.284C128.37 123.413 130.201 125.237 132.642 125.237Z" fill="#A4C3D1"/>
<path fill-rule="evenodd" clip-rule="evenodd" d="M149.732 125.237C151.868 125.237 153.699 123.413 153.699 121.284C153.699 119.155 151.868 117.33 149.732 117.33C147.596 117.33 145.765 119.155 145.765 121.284C145.46 123.413 147.291 125.237 149.732 125.237Z" fill="#A4C3D1"/>
</svg>
