<svg width="220" height="186" viewBox="0 0 220 186" fill="none" xmlns="http://www.w3.org/2000/svg">
<circle cx="110.5" cy="93" r="93" fill="#1C222D"/>
<path fill-rule="evenodd" clip-rule="evenodd" d="M138.941 146.039H30.6258L23.5176 144.688V120.714C23.5176 119.701 24.5331 118.351 25.5485 118.351H138.941V146.039Z" fill="#6E6F71"/>
<path fill-rule="evenodd" clip-rule="evenodd" d="M219.5 119.701L212.73 113.961L211.376 146.038L214.422 146.714L217.13 146.038L219.5 139.285V119.701Z" fill="#59595B"/>
<path fill-rule="evenodd" clip-rule="evenodd" d="M138.94 56.5587L172.789 53.1821C176.512 52.8444 180.235 53.5197 184.297 56.8963C197.836 68.0392 218.823 92.0132 216.792 127.805L216.115 140.636H186.328L138.602 139.286L138.94 56.5587Z" fill="#DC662B"/>
<path fill-rule="evenodd" clip-rule="evenodd" d="M214.422 103.156C215.776 108.558 216.792 114.299 216.792 120.714L157.218 97.078L152.479 84.9221L209.345 105.182L214.422 103.156Z" fill="#E67C25"/>
<path fill-rule="evenodd" clip-rule="evenodd" d="M209.683 105.182C206.299 88.2989 195.129 70.4028 180.235 59.5976C179.22 58.247 176.173 56.8963 172.789 57.234L143.002 59.9353L143.34 81.8833L150.11 80.195L152.141 84.9222L209.683 105.182Z" fill="#A4C3D1"/>
<path fill-rule="evenodd" clip-rule="evenodd" d="M193.098 71.7535C189.374 67.0262 184.974 62.9742 180.235 59.5976C179.22 58.247 176.173 56.8963 172.789 57.234L143.002 59.9353L143.34 76.143C148.079 65.3378 171.773 66.3509 193.098 71.7535Z" fill="#678498"/>
<path fill-rule="evenodd" clip-rule="evenodd" d="M59.7355 118.688H50.9349C46.5346 118.688 42.1343 119.363 37.734 120.038C35.7031 120.376 33.6721 121.727 31.9797 123.415C26.2255 129.155 23.8561 136.246 23.5176 144.012C23.5176 144.35 23.5176 144.35 23.5176 144.688C23.5176 145.363 26.2255 145.701 30.6258 145.701H80.3831H80.7216H137.249H187.344H194.114H214.423L216.116 140.973H192.422L187.344 126.454C186.667 124.428 184.975 122.402 183.283 121.727L141.31 106.532C139.956 106.194 138.941 106.532 138.941 108.22V111.935C138.941 116.662 138.941 122.402 138.941 127.467V133.207L92.907 130.168C83.4294 122.74 75.6443 118.688 59.7355 118.688Z" fill="#939597"/>
<path fill-rule="evenodd" clip-rule="evenodd" d="M62.7813 124.429C54.9961 122.403 47.5495 123.078 40.1028 124.429C38.4104 124.766 36.7179 125.779 35.364 127.13C30.2867 132.195 28.5943 138.61 28.2559 145.701C28.9328 146.039 29.9482 146.039 30.6252 146.039H75.6438C75.6438 139.961 73.6128 132.195 68.8741 127.805C66.8431 125.442 65.1507 124.766 62.7813 124.429Z" fill="#414243"/>
<path fill-rule="evenodd" clip-rule="evenodd" d="M51.6111 169C40.1026 169 30.625 159.546 30.625 148.065C30.625 136.585 40.1026 127.13 51.6111 127.13C63.1196 127.13 72.5971 136.585 72.5971 148.065C72.9356 159.546 63.4581 169 51.6111 169Z" fill="#6E6F71"/>
<path fill-rule="evenodd" clip-rule="evenodd" d="M51.6113 159.883C44.8416 159.883 39.4258 154.481 39.4258 147.727C39.4258 140.974 44.8416 135.572 51.6113 135.572C58.381 135.572 63.7967 140.974 63.7967 147.727C63.7967 154.481 58.381 159.883 51.6113 159.883Z" fill="#D1D3D2"/>
<path fill-rule="evenodd" clip-rule="evenodd" d="M124.047 111.26H13.7012V39H124.047V111.26Z" fill="#EDCC88"/>
<path fill-rule="evenodd" clip-rule="evenodd" d="M138.94 93.3636V45.7533H134.54V93.3636H0.5V118.688H138.94V93.3636Z" fill="#E67C25"/>
<path fill-rule="evenodd" clip-rule="evenodd" d="M189.375 146.039H139.279C138.602 136.246 142.326 127.467 146.726 120.376C148.757 117.337 151.126 115.649 154.511 115.987L180.574 125.441C182.267 126.117 183.282 127.805 183.959 129.493L189.375 146.039Z" fill="#414243"/>
<path fill-rule="evenodd" clip-rule="evenodd" d="M162.972 167.649C151.464 167.649 141.986 158.194 141.986 146.714C141.986 135.233 151.464 125.779 162.972 125.779C174.481 125.779 183.959 135.233 183.959 146.714C183.959 158.194 174.481 167.649 162.972 167.649Z" fill="#6E6F71"/>
<path fill-rule="evenodd" clip-rule="evenodd" d="M162.973 158.87C156.203 158.87 150.787 153.467 150.787 146.714C150.787 139.961 156.203 134.558 162.973 134.558C169.742 134.558 175.158 139.961 175.158 146.714C175.158 153.467 169.742 158.87 162.973 158.87Z" fill="#D1D3D2"/>
</svg>
